<svg width="209" height="208" viewBox="0 0 209 208" fill="none" xmlns="http://www.w3.org/2000/svg">
<path d="M183.728 178.784C178.308 184.369 173.459 187.654 169.746 190.133C133.534 214.312 92.1412 207.341 79.3435 204.961C58.6952 201.118 41.2657 198.407 26.2906 184.878C-7.73732 154.135 -6.08223 89.9999 19.9193 50.2761C23.0023 45.5652 48.9646 7.08139 90.4476 1.65875C91.462 1.52592 92.2189 1.45045 92.8823 1.38026C99.2974 0.701017 139.067 -2.8854 171.493 24.2814C176.134 28.1705 183.604 35.1848 190.531 45.8821C215.859 84.9991 215.939 145.583 183.728 178.784Z" fill="#F4F7FA"/>
<path d="M138.145 16.3879L27.3457 12.9743C21.9767 12.8083 17.5978 16.7215 17.5978 21.7155V179.591C17.5978 184.584 21.9751 188.302 27.3457 187.897L138.145 179.537C142.787 179.187 146.529 175.172 146.529 170.567V24.9819C146.529 20.3789 142.787 16.5306 138.145 16.3879Z" fill="url(#paint0_linear_154_2136)"/>
<g style="mix-blend-mode:soft-light" opacity="0.74">
<path d="M20.723 180.312V20.8552C20.723 17.9813 23.2408 15.7231 26.3359 15.8152L139.022 19.0907C141.699 19.1662 143.862 21.3873 143.862 24.0469V171.624C143.862 174.283 141.699 176.599 139.022 176.796L26.3359 185.101C23.2408 185.33 20.723 183.186 20.723 180.312Z" fill="white"/>
</g>
<path d="M138.145 16.3879L27.3457 12.9743C21.9767 12.8083 17.5978 16.7215 17.5978 21.7155V28.2015L146.529 30.9653V24.9841C146.529 20.3789 142.787 16.5306 138.145 16.3879Z" fill="url(#paint1_linear_154_2136)"/>
<path d="M34.9065 21.2875C34.9065 22.9049 33.4982 24.1819 31.7578 24.1396C30.0174 24.0973 28.597 22.7479 28.597 21.1207C28.597 19.4936 30.0137 18.2203 31.7578 18.2679C33.502 18.3154 34.9065 19.6702 34.9065 21.2875Z" fill="white"/>
<path d="M45.8695 21.5712C45.8695 23.1772 44.48 24.4467 42.7631 24.4052C41.0461 24.3637 39.6416 23.0225 39.6416 21.4097C39.6416 19.7969 41.0393 18.5289 42.7601 18.5765C44.4808 18.624 45.8695 19.9621 45.8695 21.5712Z" fill="white"/>
<path d="M56.686 21.8491C56.686 23.4446 55.3154 24.705 53.6211 24.6642C51.9267 24.6235 50.5441 23.2921 50.5441 21.6899C50.5441 20.0876 51.9229 18.828 53.6211 18.8748C55.3192 18.9216 56.686 20.2552 56.686 21.8491Z" fill="white"/>
<path d="M80.5585 61.1744L34.954 61.0989C34.2106 61.0989 33.6075 60.5442 33.6075 59.8627V56.9608C33.6075 56.2816 34.2113 55.7299 34.954 55.7344L80.5585 55.9903C81.2513 55.9903 81.8121 56.5299 81.8121 57.1865V59.9835C81.8121 60.6416 81.2513 61.1752 80.5585 61.1744Z" fill="white"/>
<path d="M36.7223 62.1943L40.643 76.5731C40.8906 77.4826 41.7796 78.1112 42.7977 78.0999L73.1562 77.7588C74.1268 77.7482 74.9721 77.1158 75.2075 76.2252L78.9056 62.2268L36.7223 62.1943ZM47.9766 75.7301C47.9766 76.3007 47.477 76.7679 46.8596 76.7747L45.794 76.7852C45.1759 76.792 44.6732 76.3324 44.6732 75.7611V64.617C44.6732 64.0449 45.1759 63.5815 45.794 63.5815H46.8596C47.477 63.5815 47.9766 64.0441 47.9766 64.614V75.7301ZM53.9011 75.6735C53.9011 76.2418 53.406 76.7075 52.7947 76.7135L51.7381 76.7241C51.1245 76.7309 50.6272 76.2713 50.6272 75.7052V64.6109C50.6272 64.0411 51.1245 63.58 51.7381 63.5792H52.7947C53.406 63.5792 53.9011 64.0396 53.9011 64.6072V75.6735ZM59.7736 75.6184C59.7736 76.1837 59.2823 76.6471 58.6762 76.6531L57.6294 76.6637C57.0257 76.6697 56.5291 76.2154 56.5291 75.6486V64.6041C56.5291 64.0374 57.0219 63.5777 57.6294 63.5777H58.6762C59.28 63.5777 59.7736 64.0358 59.7736 64.6011V75.6184ZM65.5932 75.5626C65.5932 76.1256 65.1064 76.5867 64.5056 76.5935L63.4687 76.6041C62.8649 76.6101 62.3774 76.158 62.3774 75.5935V64.5981C62.3774 64.0343 62.8664 63.5762 63.4687 63.5762H64.5056C65.1094 63.5762 65.5932 64.029 65.5932 64.5951V75.5626ZM71.3607 75.5082C71.3607 76.069 70.8785 76.5279 70.2838 76.5339L69.2551 76.5445C68.6589 76.5505 68.1743 76.0999 68.1743 75.5384V64.5951C68.1743 64.0336 68.6589 63.5777 69.2551 63.5777H70.283C70.8777 63.5777 71.36 64.0306 71.36 64.5921L71.3607 75.5082Z" fill="white"/>
<path d="M41.8462 54.3128C41.5026 54.5787 41.0731 54.709 40.6397 54.6786C40.2062 54.6483 39.7991 54.4595 39.496 54.1482C39.3527 54.0013 39.2424 53.8257 39.1722 53.6329C39.102 53.4401 39.0736 53.2345 39.0889 53.0299C39.1041 52.8253 39.1627 52.6263 39.2608 52.446C39.3588 52.2658 39.494 52.1085 39.6575 51.9845C40.0014 51.7192 40.431 51.5897 40.8643 51.6207C41.2975 51.6518 41.7043 51.8411 42.0069 52.1528C42.1494 52.2996 42.2592 52.475 42.329 52.6674C42.3988 52.8598 42.4271 53.0648 42.4119 53.2689C42.3967 53.473 42.3384 53.6715 42.2409 53.8515C42.1434 54.0314 42.0088 54.1886 41.8462 54.3128Z" fill="white"/>
<path d="M56.4808 40.65C56.2543 40.4025 55.7796 40.4289 55.4242 40.7104L40.9841 52.1776C40.6211 52.4652 40.5169 52.9006 40.7509 53.1497C40.9849 53.3987 41.4679 53.3663 41.8301 53.0788L56.2521 41.607C56.6076 41.3277 56.7087 40.8983 56.4808 40.65Z" fill="white"/>
<path d="M74.0642 54.5277C74.3839 54.7908 74.791 54.9236 75.2044 54.8996C75.6177 54.8755 76.0067 54.6964 76.2937 54.3979C76.4291 54.2532 76.5332 54.0819 76.5994 53.895C76.6656 53.7081 76.6924 53.5096 76.6783 53.3118C76.6641 53.114 76.6092 52.9213 76.517 52.7457C76.4249 52.5702 76.2975 52.4156 76.1427 52.2916C75.8236 52.0278 75.4166 51.8943 75.0033 51.9177C74.5899 51.941 74.2006 52.1196 73.9132 52.4176C73.777 52.5624 73.6723 52.7338 73.6057 52.9211C73.5391 53.1084 73.5121 53.3075 73.5262 53.5058C73.5404 53.704 73.5956 53.8972 73.6881 54.0731C73.7807 54.249 73.9088 54.4038 74.0642 54.5277Z" fill="white"/>
<path d="M59.8212 40.7075C60.0477 40.4675 60.5178 40.5105 60.8695 40.8034L74.8823 52.4592C75.2265 52.7452 75.3254 53.1701 75.1035 53.4094C74.8816 53.6486 74.4242 53.6109 74.0778 53.3249L60.0477 41.6713C59.6952 41.3785 59.5941 40.9468 59.8212 40.7075Z" fill="white"/>
<path d="M133.66 47.4638L86.6339 46.8631V41.0103L133.66 41.8253V47.4638Z" fill="white"/>
<path d="M133.66 57.336L86.6339 57.1119V51.2583L133.66 51.6975V57.336Z" fill="white"/>
<path d="M133.66 67.2075L86.6339 67.3599V61.5063L133.66 61.569V67.2075Z" fill="white"/>
<path d="M133.66 77.0802L86.6339 77.6085V71.7549L133.66 71.4409V77.0802Z" fill="white"/>
<path d="M116.991 93.3387L33.6075 95.347V89.2512L116.991 87.624V93.3387Z" fill="white"/>
<path d="M116.991 103.344L33.6075 106.02V99.9237L116.991 97.6294V103.344Z" fill="white"/>
<path d="M116.991 113.349L33.6075 116.692V110.596L116.991 107.634V113.349Z" fill="white"/>
<path d="M116.991 123.354L33.6075 127.363V121.268L116.991 117.64V123.354Z" fill="white"/>
<path d="M133.66 92.9373L122.692 93.2015V87.5132L133.66 87.2988V92.9373Z" fill="white"/>
<path d="M133.66 102.809L122.692 103.161V97.4728L133.66 97.1709V102.809Z" fill="white"/>
<path d="M133.66 112.681L122.692 113.121V107.432L133.66 107.042V112.681Z" fill="white"/>
<path d="M133.66 122.553L122.692 123.08V117.392L133.66 116.914V122.553Z" fill="white"/>
<path d="M116.991 139.591L33.6075 144.683V138.587L116.991 133.876V139.591Z" fill="white"/>
<path d="M116.991 149.597L33.6075 155.356V149.26L116.991 143.882V149.597Z" fill="white"/>
<path d="M116.991 159.601L33.6075 166.027V159.931L116.991 153.886V159.601Z" fill="white"/>
<path d="M116.991 169.606L33.6075 176.699V170.604L116.991 163.891V169.606Z" fill="white"/>
<path d="M133.66 138.573L122.692 139.243V133.554L133.66 132.934V138.573Z" fill="white"/>
<path d="M133.66 148.445L122.692 149.202V143.513L133.66 142.806V148.445Z" fill="url(#paint2_linear_154_2136)"/>
<path d="M133.66 158.316L122.692 159.161V153.473L133.66 152.678V158.316Z" fill="url(#paint3_linear_154_2136)"/>
<path d="M133.66 168.188L122.692 169.121V163.432L133.66 162.549V168.188Z" fill="url(#paint4_linear_154_2136)"/>
<path d="M152.768 144.019L127.759 140.961V104.076L152.768 99.3379V144.019Z" fill="url(#paint5_linear_154_2136)"/>
<path d="M183.275 142.076L152.768 144.019V99.3379L183.275 103.55V142.076Z" fill="url(#paint6_linear_154_2136)"/>
<g style="mix-blend-mode:soft-light">
<path d="M164.268 100.926V119.144L174.424 119.953V102.328L164.268 100.926Z" fill="white"/>
</g>
<path d="M194.235 197.32L147.839 200.582V132.63L194.235 135.893V197.32Z" fill="url(#paint7_linear_154_2136)"/>
<path d="M147.839 200.582L109.803 195.933V136.967L147.839 132.63V200.582Z" fill="url(#paint8_linear_154_2136)"/>
<g style="mix-blend-mode:soft-light">
<path d="M164.263 133.785V161.358H179.809V134.878L164.263 133.785Z" fill="white"/>
</g>
<path d="M77.7735 110.744C79.9162 108.457 73.9849 99.8619 70.8098 96.0958C68.0362 92.806 65.1856 89.4241 61.6845 89.8528C58.6112 90.2302 55.6203 93.4702 55.4414 96.5766C54.9622 104.934 74.7275 114 77.7735 110.744Z" fill="url(#paint9_linear_154_2136)"/>
<path d="M52.0469 199.06C51.6439 199.388 51.5691 200.207 51.5186 200.742C51.4967 200.981 51.4861 201.101 51.5133 201.186C51.708 201.801 52.9027 201.865 54.7759 202.057C57.7358 202.359 58.6166 202.592 58.8513 202.152C59.0686 201.74 58.5434 201.063 58.4837 200.989C58.166 200.589 57.7751 200.442 57.0204 200.194C55.6242 199.734 54.6808 199.483 54.3947 199.407C52.6099 198.931 52.3118 198.845 52.0469 199.06Z" fill="url(#paint10_linear_154_2136)"/>
<path d="M53.8076 196.356L54.1035 199.729C54.0197 199.892 53.0167 200.381 52.2205 199.962L51.4597 196.646L53.8076 196.356Z" fill="url(#paint11_linear_154_2136)"/>
<path d="M75.523 198.627C75.04 199.161 74.9298 200.144 75.3502 200.628C75.7706 201.112 76.3842 200.747 78.1426 200.8C80.0294 200.856 80.523 201.302 81.806 200.951C82.3238 200.808 83.24 200.46 83.2219 200.091C83.2098 199.83 82.7434 199.696 81.1841 199.174C78.9758 198.435 78.9849 198.394 78.5162 198.316C77.3449 198.118 76.1615 197.925 75.523 198.627Z" fill="url(#paint12_linear_154_2136)"/>
<path d="M76.7328 195.548L77.6792 198.697C77.6038 198.866 76.6453 199.43 75.8196 199.074L74.4136 196.018L76.7328 195.548Z" fill="url(#paint13_linear_154_2136)"/>
<path d="M68.3207 126.578C68.6232 150.162 71.7527 173.625 77.6422 196.464L74.0196 197.44C70.9554 194.582 67.0898 190.084 65.2241 183.728C64.0664 179.783 64.4521 177.755 63.7147 172.903C62.5456 165.177 60.1774 161.129 57.7298 154.898C55.5298 149.3 52.9298 141.087 51.5359 130.1L68.3207 126.578Z" fill="url(#paint14_linear_154_2136)"/>
<path d="M57.4181 125.568C56.6784 139.029 56.0747 152.737 55.6067 166.693C55.2611 177.164 55.005 187.501 54.8384 197.704L51.1366 198.161C49.442 195.013 48.1452 191.666 47.2762 188.198C45.9592 182.915 46.2641 179.779 45.686 174.304C45.0377 168.163 44.0966 166.826 42.4287 159.079C39.0461 143.358 37.3532 135.497 41.1298 130.604C42.3585 129.019 46.1985 125.038 57.4181 125.568Z" fill="url(#paint15_linear_154_2136)"/>
<path d="M39.4362 91.7395C43.4528 90.6091 47.5805 89.9195 51.7464 89.6829C59.1427 89.2648 62.8408 89.0565 65.4627 90.815C71.5163 94.8837 66.8295 104.274 69.3072 127.55C69.6612 130.871 69.7404 134.222 69.997 137.555C70.4212 143.073 70.5178 143.373 70.1336 143.932C67.7261 147.439 58.7419 142.15 45.5751 144.241C38.2075 145.411 34.8664 148.106 32.8483 146.161C30.4943 143.897 32.5132 137.797 34.2513 132.549C36.246 126.523 37.4785 126.446 38.6113 121.907C39.7947 117.164 39.0785 114.723 38.8943 107.244C38.7717 102.069 38.9527 96.8926 39.4362 91.7395Z" fill="url(#paint16_linear_154_2136)"/>
<g style="mix-blend-mode:multiply" opacity="0.3">
<path style="mix-blend-mode:multiply" opacity="0.3" d="M57.3419 135.438C53.9004 135.168 51.6671 137.114 48.6966 135.598C44.6211 133.518 43.3139 127.05 43.5736 122.471C43.9683 115.514 47.9404 113.68 47.2558 109.183C46.886 106.752 45.1494 103.523 38.9154 100.224C38.8324 103.001 38.8483 105.367 38.8943 107.243C39.0785 114.722 39.7947 117.164 38.6113 121.906C37.4792 126.444 36.246 126.521 34.2513 132.548C32.5155 137.796 30.4943 143.893 32.8483 146.161C34.8664 148.105 38.2068 145.406 45.5751 144.24C56.9207 142.438 65.1554 146.112 68.7585 144.919C64.4045 137.728 60.4558 135.681 57.3419 135.438Z" fill="url(#paint17_linear_154_2136)"/>
</g>
<path d="M44.1306 92.2167C41.6725 90.1971 36.7306 92.4831 35.4091 93.0944C28.0422 96.502 21.4271 105.685 23.0664 115.39C23.3124 116.845 24.452 123.653 30.2166 126.952C35.4181 129.928 42.443 129.162 48.068 124.947L50.3751 122.9C51.1299 122.083 51.8866 121.265 52.6453 120.446C50.8598 118.96 48.8069 117.829 46.597 117.114C42.8559 115.907 40.1313 118.073 38.3955 116.427C37.1977 115.29 37.1947 113.282 37.4898 112.065C38.086 109.613 40.2483 108.923 42.0521 107.182C46.2921 103.093 47.0732 94.6348 44.1306 92.2167Z" fill="url(#paint18_linear_154_2136)"/>
<path d="M79.4528 123.898L46.5079 123.406L55.2687 127.634L79.5366 126.046L79.4528 123.898Z" fill="url(#paint19_linear_154_2136)"/>
<path d="M45.345 124.282C45.345 124.583 45.4376 124.876 45.6103 125.123C45.783 125.369 46.0274 125.557 46.3102 125.66L56.8369 129.787L56.8852 126.925L46.5095 123.406C46.3737 123.367 46.2307 123.36 46.0917 123.385C45.9527 123.411 45.8215 123.468 45.7085 123.553C45.5955 123.638 45.5039 123.748 45.4408 123.874C45.3777 124.001 45.3449 124.14 45.345 124.282Z" fill="url(#paint20_linear_154_2136)"/>
<path d="M50.4181 122.332C50.2158 122.288 51.3992 119.922 52.3351 120.195C53.2709 120.468 57.8249 123.109 58.2393 124.195L58.6544 125.282C58.6544 125.282 56.6657 125.438 55.4324 125.023C54.1992 124.609 52.0619 122.699 50.4181 122.332Z" fill="url(#paint21_linear_154_2136)"/>
<path d="M57.7592 106.85L55.4369 127.994C55.3569 128.724 56.3781 129.811 57.1109 129.776L91.1781 127.685C91.4499 127.672 91.7091 127.567 91.9129 127.387C92.1167 127.207 92.2529 126.962 92.2989 126.694L96.5743 106.273C96.7019 105.529 95.3668 104.763 94.6121 104.783L58.9139 105.787C58.6254 105.795 58.3495 105.907 58.1372 106.102C57.9249 106.298 57.7906 106.563 57.7592 106.85Z" fill="url(#paint22_linear_154_2136)"/>
<path d="M58.538 107.467L56.215 128.611C56.1962 128.783 56.2148 128.956 56.2695 129.12C56.3242 129.284 56.4137 129.434 56.5319 129.56C56.6501 129.685 56.7942 129.784 56.9542 129.849C57.1142 129.914 57.2864 129.943 57.4588 129.935L91.957 128.302C92.2287 128.289 92.4879 128.184 92.6916 128.003C92.8954 127.823 93.0316 127.579 93.0777 127.311L96.6022 106.796C96.6321 106.622 96.623 106.444 96.5756 106.274C96.5283 106.104 96.4438 105.946 96.3283 105.813C96.2129 105.679 96.0693 105.573 95.9078 105.501C95.7464 105.43 95.5711 105.395 95.3947 105.4L59.6965 106.404C59.4074 106.41 59.1306 106.522 58.9175 106.718C58.7044 106.913 58.5696 107.179 58.538 107.467Z" fill="url(#paint23_linear_154_2136)"/>
<path style="mix-blend-mode:multiply" opacity="0.3" d="M78.7947 123.347C75.7826 122.071 76.846 119.636 73.2853 116.602C68.5932 112.602 63.8098 114.338 62.1358 111.234C61.6143 110.268 61.3652 108.764 62.2732 106.328L59.6883 106.404C59.4 106.412 59.1245 106.524 58.9125 106.719C58.7006 106.915 58.5665 107.18 58.5351 107.467L56.2151 128.611C56.1963 128.783 56.215 128.956 56.2698 129.12C56.3245 129.284 56.4141 129.434 56.5322 129.559C56.6504 129.685 56.7944 129.784 56.9544 129.849C57.1143 129.914 57.2864 129.943 57.4588 129.935L91.957 128.302C92.2287 128.289 92.4879 128.184 92.6917 128.004C92.8955 127.823 93.0317 127.579 93.0777 127.311L93.5638 124.48C92.3916 123.82 91.1243 123.344 89.8068 123.072C84.7457 122.045 82.2626 124.817 78.7947 123.347Z" fill="url(#paint24_linear_154_2136)"/>
<path d="M94.132 125.344C94.1454 125.305 94.1495 125.263 94.1438 125.221C94.1382 125.18 94.1231 125.141 94.0997 125.106C94.0763 125.072 94.0452 125.044 94.0089 125.023C93.9726 125.003 93.9321 124.991 93.8905 124.989C93.1615 124.952 91.4702 124.937 90.5366 125.509C89.3238 126.252 87.7562 127.607 89.0762 128.291L90.3094 128.93C90.3647 128.959 90.4286 128.968 90.4898 128.955C90.9283 128.859 92.772 128.449 92.9736 128.351C93.1554 128.255 93.8581 126.169 94.132 125.344Z" fill="url(#paint25_linear_154_2136)"/>
<path d="M52.2989 81.6021C52.3183 83.3208 52.1649 85.0371 51.8408 86.725C51.5759 88.0896 51.3879 88.442 51.1411 88.728C50.7744 89.1582 50.2181 89.5197 47.0755 90.2986C45.3653 90.7227 45.1457 90.7114 45.1079 90.8812C44.9238 91.7114 49.5864 94.5303 54.4038 93.8503C57.3525 93.4344 60.0347 91.7522 59.8702 90.8684C59.7057 89.9846 56.7593 90.4571 55.8815 88.8488C55.271 87.7296 55.957 86.1416 56.7646 84.8262C55.9804 83.3583 53.0823 83.07 52.2989 81.6021Z" fill="url(#paint26_linear_154_2136)"/>
<path d="M57.7707 82.4687C58.4665 81.5449 58.5095 79.9313 57.708 78.911C57.0182 78.0332 55.9321 77.908 55.2823 77.8332C53.3955 77.6159 51.0219 78.4015 50.1955 80.1351C49.7057 81.163 50.7653 83.2973 50.9313 83.6822C51.1193 84.1162 51.4597 84.2656 51.7751 84.5932C52.2114 85.046 52.8951 85.772 54.0114 86.9818C54.1168 86.5444 54.26 86.1168 54.4393 85.7041C54.672 85.1673 54.9726 84.6626 55.3337 84.2022C56.3156 83.003 57.111 83.3449 57.7707 82.4687Z" fill="url(#paint27_linear_154_2136)"/>
<path d="M52.4196 85.963C52.4196 85.963 53.6573 87.994 56.1229 87.834C58.3305 87.6898 58.6535 82.7404 57.2437 81.6899C56.7735 81.3397 55.8309 81.194 55.0656 81.4084C54.6128 81.5352 54.4618 81.7231 53.7162 81.9163C53.0309 82.0936 52.8369 82.0182 52.6301 82.1918C52.3712 82.4099 52.1818 82.9465 52.6143 84.391C52.1931 83.9646 51.6875 83.8008 51.3312 83.9698C51.2089 84.0367 51.1074 84.1359 51.0377 84.2566C50.7267 84.8219 51.2429 85.5472 52.4196 85.963Z" fill="url(#paint28_linear_154_2136)"/>
<path d="M52.5305 81.896C52.6369 81.9752 52.3116 82.3722 52.2875 82.9345C52.24 84.0258 53.3441 85.3352 54.4709 85.4462C55.1373 85.5118 55.3207 85.1103 56.4219 84.9933C56.9587 84.9384 57.5009 84.9697 58.0279 85.0862C58.3736 86.2831 58.0483 87.4763 57.2483 88.0296C56.3871 88.6258 55.286 88.2643 54.8271 88.1126C54.52 88.0114 53.5335 87.6899 53.0158 86.7858C52.4784 85.8431 53.0052 85.2763 52.3894 84.6386C52.0792 84.3171 51.6709 84.1775 51.2739 83.5556C51.1875 83.4219 51.1118 83.2816 51.0475 83.136C51.6226 82.5337 52.3766 81.7813 52.5305 81.896Z" fill="url(#paint29_linear_154_2136)"/>
<path d="M57.2264 85.5306C57.2264 85.5306 56.7501 85.7797 55.926 85.7337C55.886 85.7337 55.8414 85.7427 55.8369 85.7638C55.818 85.8393 56.3464 86.1918 56.8331 86.0552C57.1788 85.9578 57.4482 85.631 57.4014 85.5472C57.3818 85.5125 57.3018 85.517 57.2264 85.5306Z" fill="url(#paint30_linear_154_2136)"/>
<path d="M106.368 199.711C104.609 199.572 102.359 199.084 100.2 197.674C97.8603 196.146 94.8196 193.007 95.6143 191.028C95.9109 190.29 96.7645 189.658 97.5154 189.718C98.6241 189.807 98.7532 191.347 100.678 193.022C101.035 193.332 102.874 194.933 103.789 194.393C104.241 194.125 104.378 193.382 104.303 192.817C104.087 191.165 102.07 190.911 100.131 189.124C98.169 187.312 96.5268 184.148 97.4634 182.01C98.0022 180.781 99.4256 179.811 100.361 180.084C100.761 180.2 101.015 180.527 102.229 183.151C103.226 185.304 103.448 185.931 104.091 186.136C104.752 186.345 105.78 186.082 106.171 185.431C107.189 183.733 102.789 181.228 102.39 176.478C102.211 174.349 102.786 171.195 104.714 170.515C106.017 170.059 107.873 170.757 108.545 171.949C109.149 173.027 108.414 173.836 108.876 176.258C109.016 176.993 109.304 178.505 109.912 178.584C110.626 178.677 111.426 176.749 111.61 176.28C113 172.746 111.406 170.929 112.717 169.213C113.739 167.875 115.962 167.338 117.725 168.013C119.266 168.605 120.5 170.142 120.582 171.736C120.666 173.358 119.299 174.971 116.575 178.199C115.281 179.73 114.253 180.765 114.311 182.286C114.339 183.028 114.633 184.071 115.165 184.167C116.337 184.376 116.914 179.655 119.693 178.926C121.115 178.553 122.883 179.286 123.66 180.568C124.611 182.139 123.974 184.366 122.778 185.536C121.218 187.065 119.619 185.903 116.684 187.545C115.381 188.272 113.335 189.821 113.635 191.101C113.765 191.659 114.349 192.205 114.993 192.278C116.427 192.441 116.906 190.085 119.22 189.049C120.885 188.303 123.187 188.384 123.734 189.323C124.506 190.648 121.764 193.658 120.306 194.988C118.539 196.6 114.382 199.648 106.368 199.711Z" fill="url(#paint31_linear_154_2136)"/>
<path opacity="0.5" d="M107.158 198.957C106.925 195.017 109.535 186.991 111.434 183.197C113.292 179.483 115.069 173.612 115.087 173.551L115.203 173.586C115.186 173.645 113.404 179.529 111.542 183.246C109.649 187.029 107.047 195.025 107.278 198.944L107.158 198.957Z" fill="white"/>
<path d="M102.223 200.225C100.898 198.387 98.9554 195.069 98.6075 190.631C98.4641 188.802 98.1834 185.23 100.369 182.149C101.458 180.613 103.765 178.343 105.328 178.998C106.332 179.419 106.955 181.022 106.672 182.243C106.389 183.463 105.347 183.586 104.216 185.672C103.797 186.444 103.318 187.351 103.687 187.861C103.995 188.289 104.838 188.367 105.47 188.11C106.776 187.582 106.367 185.955 107.78 184.789C108.783 183.959 110.457 183.57 111.176 184.25C111.802 184.839 111.693 186.216 111.14 187.135C110.252 188.606 108.661 188.174 107.624 189.782C107.164 190.495 106.837 191.573 107.239 191.998C107.698 192.484 109.05 192.064 109.914 191.527C111.057 190.819 111.099 190.065 111.852 189.971C112.691 189.865 113.739 190.665 113.905 191.549C114.131 192.788 112.615 194.124 111.414 194.705C109.874 195.447 108.729 195.011 107.977 196.026C107.7 196.399 107.448 197.007 107.675 197.376C107.998 197.905 109.166 197.729 109.939 197.613C111.826 197.333 112.345 196.648 113.021 196.981C113.697 197.314 114.059 198.454 113.763 199.252C113.598 199.695 113.104 200.384 110.655 200.812C108.942 201.112 106.062 201.324 102.223 200.225Z" fill="url(#paint32_linear_154_2136)"/>
<path d="M196.886 63.4974C196.886 79.7616 183.78 93.822 167.564 94.9058C151.292 95.994 138.061 83.6122 138.061 67.2476C138.061 50.8831 151.292 36.8137 167.566 35.8273C183.78 34.8431 196.886 47.2333 196.886 63.4974Z" fill="url(#paint33_linear_154_2136)"/>
<path d="M166.528 81.3507C165.253 81.4345 164.066 80.8413 163.406 79.7809L152.321 61.9764C151.282 60.3085 151.842 58.0225 153.571 56.8723C155.3 55.7221 157.54 56.1432 158.578 57.8104L166.268 70.1696L176.414 49.5063C177.325 47.6512 179.512 46.8006 181.299 47.6051C183.086 48.4097 183.796 50.5629 182.884 52.4165L169.772 79.1417C169.48 79.7413 169.041 80.2573 168.496 80.6416C167.951 81.026 167.318 81.2663 166.655 81.3402C166.614 81.3447 166.571 81.3485 166.528 81.3507Z" fill="white"/>
<defs>
<linearGradient id="paint0_linear_154_2136" x1="17.5978" y1="100.448" x2="146.529" y2="100.448" gradientUnits="userSpaceOnUse">
<stop stop-color="#FF9085"/>
<stop offset="1" stop-color="#FB6FBB"/>
</linearGradient>
<linearGradient id="paint1_linear_154_2136" x1="82.7488" y1="19.9155" x2="71.7367" y2="119.447" gradientUnits="userSpaceOnUse">
<stop stop-color="#40447E"/>
<stop offset="1" stop-color="#3C3B6B"/>
</linearGradient>
<linearGradient id="paint2_linear_154_2136" x1="45.104" y1="146.004" x2="345.894" y2="146.004" gradientUnits="userSpaceOnUse">
<stop stop-color="#AA80F9"/>
<stop offset="1" stop-color="#6165D7"/>
</linearGradient>
<linearGradient id="paint3_linear_154_2136" x1="11764.2" y1="16468.7" x2="55478" y2="16468.7" gradientUnits="userSpaceOnUse">
<stop stop-color="#AA80F9"/>
<stop offset="1" stop-color="#6165D7"/>
</linearGradient>
<linearGradient id="paint4_linear_154_2136" x1="11764.2" y1="17564.2" x2="55478" y2="17564.2" gradientUnits="userSpaceOnUse">
<stop stop-color="#AA80F9"/>
<stop offset="1" stop-color="#6165D7"/>
</linearGradient>
<linearGradient id="paint5_linear_154_2136" x1="153.081" y1="102.401" x2="125.632" y2="148.758" gradientUnits="userSpaceOnUse">
<stop stop-color="#FFC444"/>
<stop offset="0.31" stop-color="#FBA94A"/>
<stop offset="1" stop-color="#F36F56"/>
</linearGradient>
<linearGradient id="paint6_linear_154_2136" x1="178534" y1="81519.8" x2="159504" y2="103463" gradientUnits="userSpaceOnUse">
<stop stop-color="#FFC444"/>
<stop offset="0.31" stop-color="#FBA94A"/>
<stop offset="1" stop-color="#F36F56"/>
</linearGradient>
<linearGradient id="paint7_linear_154_2136" x1="277310" y1="153873" x2="231742" y2="206419" gradientUnits="userSpaceOnUse">
<stop stop-color="#FFC444"/>
<stop offset="0.31" stop-color="#FBA94A"/>
<stop offset="1" stop-color="#F36F56"/>
</linearGradient>
<linearGradient id="paint8_linear_154_2136" x1="207143" y1="154020" x2="164345" y2="194480" gradientUnits="userSpaceOnUse">
<stop stop-color="#FFC444"/>
<stop offset="0.31" stop-color="#FBA94A"/>
<stop offset="1" stop-color="#F36F56"/>
</linearGradient>
<linearGradient id="paint9_linear_154_2136" x1="-74204.1" y1="40609.7" x2="-68401.6" y2="69969.6" gradientUnits="userSpaceOnUse">
<stop stop-color="#AA80F9"/>
<stop offset="1" stop-color="#6165D7"/>
</linearGradient>
<linearGradient id="paint10_linear_154_2136" x1="58.9393" y1="201.131" x2="51.5635" y2="201.352" gradientUnits="userSpaceOnUse">
<stop stop-color="#444B8C"/>
<stop offset="1" stop-color="#26264F"/>
</linearGradient>
<linearGradient id="paint11_linear_154_2136" x1="54.1035" y1="198.242" x2="51.459" y2="198.242" gradientUnits="userSpaceOnUse">
<stop stop-color="#FFC444"/>
<stop offset="1" stop-color="#F36F56"/>
</linearGradient>
<linearGradient id="paint12_linear_154_2136" x1="-44729.8" y1="18626.3" x2="-45540.4" y2="18854.3" gradientUnits="userSpaceOnUse">
<stop stop-color="#444B8C"/>
<stop offset="1" stop-color="#26264F"/>
</linearGradient>
<linearGradient id="paint13_linear_154_2136" x1="16736.7" y1="11358.9" x2="16878" y2="11358.9" gradientUnits="userSpaceOnUse">
<stop stop-color="#FFC444"/>
<stop offset="1" stop-color="#F36F56"/>
</linearGradient>
<linearGradient id="paint14_linear_154_2136" x1="-80718.8" y1="206486" x2="-106740" y2="184876" gradientUnits="userSpaceOnUse">
<stop stop-color="#40447E"/>
<stop offset="1" stop-color="#3C3B6B"/>
</linearGradient>
<linearGradient id="paint15_linear_154_2136" x1="-45214.3" y1="181127" x2="-69979.2" y2="170685" gradientUnits="userSpaceOnUse">
<stop stop-color="#40447E"/>
<stop offset="1" stop-color="#3C3B6B"/>
</linearGradient>
<linearGradient id="paint16_linear_154_2136" x1="-135822" y1="110899" x2="-112857" y2="184886" gradientUnits="userSpaceOnUse">
<stop stop-color="#AA80F9"/>
<stop offset="1" stop-color="#6165D7"/>
</linearGradient>
<linearGradient id="paint17_linear_154_2136" x1="-132977" y1="129883" x2="-125875" y2="103127" gradientUnits="userSpaceOnUse">
<stop stop-color="#AA80F9"/>
<stop offset="1" stop-color="#6165D7"/>
</linearGradient>
<linearGradient id="paint18_linear_154_2136" x1="-110358" y1="67565.2" x2="-100165" y2="106613" gradientUnits="userSpaceOnUse">
<stop stop-color="#AA80F9"/>
<stop offset="1" stop-color="#6165D7"/>
</linearGradient>
<linearGradient id="paint19_linear_154_2136" x1="67.874" y1="137.518" x2="63.889" y2="126.226" gradientUnits="userSpaceOnUse">
<stop stop-color="#311944"/>
<stop offset="1" stop-color="#893976"/>
</linearGradient>
<linearGradient id="paint20_linear_154_2136" x1="-40365.4" y1="13314.6" x2="-40295.4" y2="14185.2" gradientUnits="userSpaceOnUse">
<stop stop-color="#311944"/>
<stop offset="1" stop-color="#893976"/>
</linearGradient>
<linearGradient id="paint21_linear_154_2136" x1="44272.6" y1="10790.9" x2="45176.3" y2="10790.9" gradientUnits="userSpaceOnUse">
<stop stop-color="#FFC444"/>
<stop offset="1" stop-color="#F36F56"/>
</linearGradient>
<linearGradient id="paint22_linear_154_2136" x1="-127905" y1="51782" x2="-129881" y2="47161.4" gradientUnits="userSpaceOnUse">
<stop stop-color="#444B8C"/>
<stop offset="1" stop-color="#26264F"/>
</linearGradient>
<linearGradient id="paint23_linear_154_2136" x1="-133930" y1="56773.5" x2="-130102" y2="43966.8" gradientUnits="userSpaceOnUse">
<stop stop-color="#311944"/>
<stop offset="1" stop-color="#893976"/>
</linearGradient>
<linearGradient id="paint24_linear_154_2136" x1="-127910" y1="47695.1" x2="-109420" y2="47695.1" gradientUnits="userSpaceOnUse">
<stop stop-color="#311944"/>
<stop offset="1" stop-color="#893976"/>
</linearGradient>
<linearGradient id="paint25_linear_154_2136" x1="27300.9" y1="8627.45" x2="27712.2" y2="8627.45" gradientUnits="userSpaceOnUse">
<stop stop-color="#FFC444"/>
<stop offset="1" stop-color="#F36F56"/>
</linearGradient>
<linearGradient id="paint26_linear_154_2136" x1="80468.5" y1="19006.5" x2="80273.3" y2="22974.5" gradientUnits="userSpaceOnUse">
<stop stop-color="#FFC444"/>
<stop offset="1" stop-color="#F36F56"/>
</linearGradient>
<linearGradient id="paint27_linear_154_2136" x1="49.1525" y1="91.1969" x2="54.7304" y2="77.0309" gradientUnits="userSpaceOnUse">
<stop stop-color="#311944"/>
<stop offset="1" stop-color="#6B3976"/>
</linearGradient>
<linearGradient id="paint28_linear_154_2136" x1="38361.8" y1="10348.3" x2="39038.3" y2="10348.3" gradientUnits="userSpaceOnUse">
<stop stop-color="#FFC444"/>
<stop offset="1" stop-color="#F36F56"/>
</linearGradient>
<linearGradient id="paint29_linear_154_2136" x1="39450.5" y1="9828.11" x2="39004.3" y2="8582.52" gradientUnits="userSpaceOnUse">
<stop stop-color="#311944"/>
<stop offset="1" stop-color="#6B3976"/>
</linearGradient>
<linearGradient id="paint30_linear_154_2136" x1="8489.81" y1="983.738" x2="8522.49" y2="983.738" gradientUnits="userSpaceOnUse">
<stop stop-color="#FFC444"/>
<stop offset="1" stop-color="#F36F56"/>
</linearGradient>
<linearGradient id="paint31_linear_154_2136" x1="60066.7" y1="83472.6" x2="53287.5" y2="95051.7" gradientUnits="userSpaceOnUse">
<stop stop-color="#AA80F9"/>
<stop offset="1" stop-color="#6165D7"/>
</linearGradient>
<linearGradient id="paint32_linear_154_2136" x1="112.526" y1="184.189" x2="95.2158" y2="204.941" gradientUnits="userSpaceOnUse">
<stop stop-color="#E38DDD"/>
<stop offset="1" stop-color="#9571F6"/>
</linearGradient>
<linearGradient id="paint33_linear_154_2136" x1="135027" y1="77983.1" x2="180877" y2="77983.1" gradientUnits="userSpaceOnUse">
<stop stop-color="#AA80F9"/>
<stop offset="1" stop-color="#6165D7"/>
</linearGradient>
</defs>
</svg>
